<?xml version="1.0" encoding="utf-8"?>
<!-- Generator: Adobe Illustrator 26.5.1, SVG Export Plug-In . SVG Version: 6.00 Build 0) -->
<svg version="1.1" id="Layer_1" xmlns="http://www.w3.org/2000/svg" xmlns:xlink="http://www.w3.org/1999/xlink" x="0px" y="0px"
	 viewBox="0 0 1371 246" style="enable-background:new 0 0 1371 246;" xml:space="preserve">
<style type="text/css">
	.st0{fill:url(#SVGID_1_);}
	.st1{fill:url(#SVGID_00000030453394346757590650000007504812187843903891_);}
	.st2{fill:url(#SVGID_00000101101755520616123870000010396432158320126608_);}
	.st3{fill:url(#SVGID_00000181798513191560296880000014202892466294404780_);}
	.st4{fill:url(#SVGID_00000029738377020450596160000017953231229236612236_);}
	.st5{fill:url(#SVGID_00000051381724582686287390000011205443485184574134_);}
	.st6{fill:url(#SVGID_00000065034216449912136500000017277645424605691804_);}
	.st7{fill:url(#SVGID_00000013176147355249457390000016110678046401018259_);}
	.st8{fill:url(#SVGID_00000003821521604926679150000012317842217051137209_);}
</style>
<g>
	<linearGradient id="SVGID_1_" gradientUnits="userSpaceOnUse" x1="505.988" y1="123.142" x2="664.4177" y2="123.142">
		<stop offset="0" style="stop-color:#AD882E"/>
		<stop offset="0.9469" style="stop-color:#FCD600"/>
	</linearGradient>
	<path class="st0" d="M585.6,52.2c-31-0.2-61.5,13.5-74.1,43.5c-5.1,12-5.5,22.6-5.5,27.5c0,6.3,0.6,19.9,8.7,34.6
		c19.2,34.4,59.1,36.3,69.9,36.3c10.4,0,42.7-1.5,64.4-27.5c13.9-16.7,15.4-35.9,15.4-43.5c0-6.6-1.1-21.8-10.8-37.2
		C633.5,53.9,596.6,52.2,585.6,52.2z M649.8,122.3c0,8.4-1.1,31.7-22,47.5c-16.5,12.3-35.7,12.9-42.4,12.9c-9.5,0-47.5-1.9-61-35.9
		c-4-9.9-4.4-19.4-4.4-23c0-26.8,15.4-42,23.2-47.7c14.6-10.8,32.7-12.2,38.2-12.3c19.6-0.8,34,5.3,40.5,8.7
		c19,10.3,24.7,27.9,26.4,35.3C650,114.7,649.8,119.2,649.8,122.3z"/>
	
		<linearGradient id="SVGID_00000041981610798305216080000010792634436939127178_" gradientUnits="userSpaceOnUse" x1="59.5852" y1="123.142" x2="207.7565" y2="123.142">
		<stop offset="0" style="stop-color:#AD882E"/>
		<stop offset="0.9469" style="stop-color:#FCD600"/>
	</linearGradient>
	<polygon style="fill:url(#SVGID_00000041981610798305216080000010792634436939127178_);" points="125.7,56.1 59.6,190.2 
		73.1,190.2 90.2,155.4 95.3,144.8 132.9,68.1 171.3,144.8 136,144.8 136,155.4 176.6,155.4 193.9,190.2 207.8,190.2 140.1,56.1 	
		"/>
	
		<linearGradient id="SVGID_00000033331144853967546810000012900445165274236551_" gradientUnits="userSpaceOnUse" x1="224.6591" y1="123.142" x2="335.5987" y2="123.142">
		<stop offset="0" style="stop-color:#AD882E"/>
		<stop offset="0.9469" style="stop-color:#FCD600"/>
	</linearGradient>
	<polygon style="fill:url(#SVGID_00000033331144853967546810000012900445165274236551_);" points="238,56.1 224.7,56.1 224.7,190.2 
		335.6,190.2 335.6,179 238,179 	"/>
	
		<linearGradient id="SVGID_00000124842660944989766600000008366881757081032122_" gradientUnits="userSpaceOnUse" x1="336.1642" y1="122.9521" x2="483.9561" y2="122.9521">
		<stop offset="0" style="stop-color:#AD882E"/>
		<stop offset="0.9469" style="stop-color:#FCD600"/>
	</linearGradient>
	<path style="fill:url(#SVGID_00000124842660944989766600000008366881757081032122_);" d="M401.1,131.5h71.2
		c-0.2,2.5-0.6,8.9-3,15.8c-5.9,16-20.7,27.4-36.7,32.1c-8.7,2.5-16.3,2.7-19.8,2.7c-27.4,0-42.7-12.3-50-20.9
		c-12.2-14.4-12.9-31.7-12.9-38c0-24.7,13.3-45.8,36.7-54.7c10.8-4.2,20.5-4.4,24.7-4.4c18.8,0,38.4,5.9,50.7,21.3
		c2.8,3.4,4,5.3,6.1,9.3l12.5-7.2c-2.3-3.6-7-11.6-16.1-19c-19.4-15.6-45.2-16.5-52.1-16.5c-32.9,0-51.5,15.4-60,25.5
		c-15.2,17.7-16.3,38-16.3,46.2c0,17.3,5.7,29.3,8.9,35c13.1,23.4,34.8,30.2,43.7,32.5c10.6,2.8,18.4,3,23,3
		c25.8,0,43.1-11.2,50.2-17.7c2.5-2.3,6.5-6.5,10.4-13.5v27.4H484v-70.1h-82.8V131.5z"/>
	
		<linearGradient id="SVGID_00000102531090181049856570000013747287864115848376_" gradientUnits="userSpaceOnUse" x1="687.9687" y1="123.1419" x2="833.2902" y2="123.1419">
		<stop offset="0" style="stop-color:#AD882E"/>
		<stop offset="0.9469" style="stop-color:#FCD600"/>
	</linearGradient>
	<path style="fill:url(#SVGID_00000102531090181049856570000013747287864115848376_);" d="M813.3,121.8
		c12.7-9.5,13.7-23.6,13.7-28.9c0-3.6-0.4-12.9-5.9-21.3c-9.5-14.4-25.3-15.2-30.8-15.4c-3.2-0.2-6.5-0.2-9.7-0.2H688v30.4h12.9
		V67.1h80.2c7.6,0,15,0,21.7,4.4C812,77.7,813,88.9,813,92.2c0,6.1-2.1,11-3,12.9c-5.7,11.2-16.9,13.1-28.1,13.7
		c-3,0.2-5.9,0.2-8.9,0.2h-72V98.3H688v91.9h12.9v-59.8h61.4l53,59.8h18l-53.9-59.8C791.1,129.8,803.3,129.2,813.3,121.8z"/>
	
		<linearGradient id="SVGID_00000183218428662994350520000017144858636968998559_" gradientUnits="userSpaceOnUse" x1="995.9932" y1="123.142" x2="1138.4658" y2="123.142">
		<stop offset="0" style="stop-color:#AD882E"/>
		<stop offset="0.9469" style="stop-color:#FCD600"/>
	</linearGradient>
	<polygon style="fill:url(#SVGID_00000183218428662994350520000017144858636968998559_);" points="1006.4,67.1 1121.2,67.1 
		996,179.4 996,190.2 1135,190.2 1135,179 1014.4,179 1138.5,67.9 1138.5,56.1 1006.4,56.1 	"/>
	
		<linearGradient id="SVGID_00000002356070846086081800000006784324131531673266_" gradientUnits="userSpaceOnUse" x1="1177.4905" y1="123.142" x2="1311.4148" y2="123.142">
		<stop offset="0" style="stop-color:#AD882E"/>
		<stop offset="0.9469" style="stop-color:#FCD600"/>
	</linearGradient>
	<polygon style="fill:url(#SVGID_00000002356070846086081800000006784324131531673266_);" points="1190.6,179 1190.6,125.6 
		1217.6,125.6 1217.6,114.2 1190.6,114.2 1190.6,67.1 1305.9,67.1 1305.9,56.1 1177.5,56.1 1177.5,190.2 1311.4,190.2 1311.4,179 	
		"/>
	
		<linearGradient id="SVGID_00000173882050988978221590000002563736042886031514_" gradientUnits="userSpaceOnUse" x1="1246.6904" y1="119.9127" x2="1297.1677" y2="119.9127">
		<stop offset="0" style="stop-color:#AD882E"/>
		<stop offset="0.9469" style="stop-color:#FCD600"/>
	</linearGradient>
	
		<rect x="1246.7" y="114.2" style="fill:url(#SVGID_00000173882050988978221590000002563736042886031514_);" width="50.5" height="11.4"/>
	
		<linearGradient id="SVGID_00000111153157013246486360000006364329183365037953_" gradientUnits="userSpaceOnUse" x1="844.4255" y1="123.1419" x2="989.2562" y2="123.1419">
		<stop offset="0" style="stop-color:#AD882E"/>
		<stop offset="0.9469" style="stop-color:#FCD600"/>
	</linearGradient>
	<polygon style="fill:url(#SVGID_00000111153157013246486360000006364329183365037953_);" points="918.2,125 861.4,56.1 844.4,56.1 
		911.7,135.9 911.7,190.2 924.6,190.2 924.6,135.9 989.3,56.1 973.1,56.1 	"/>
</g>
</svg>
