<?xml version="1.0" encoding="utf-8"?>
<!-- Generator: Adobe Illustrator 26.5.1, SVG Export Plug-In . SVG Version: 6.00 Build 0)  -->
<svg version="1.1" id="Layer_1" xmlns="http://www.w3.org/2000/svg" xmlns:xlink="http://www.w3.org/1999/xlink" x="0px" y="0px"
	 viewBox="0 0 1371 246" style="enable-background:new 0 0 1371 246;" xml:space="preserve">
<style type="text/css">
	.st0{fill:#161925;}
</style>
<g>
	<g>
		<path class="st0" d="M649,166.5c-21.7,26-53.9,27.5-64.4,27.5c-10.8,0-50.7-1.9-69.9-36.3c-8.2-14.6-8.7-28.3-8.7-34.6
			c0-4.9,0.4-15.6,5.5-27.5c12.5-30,43.1-43.7,74.1-43.5c11,0,47.9,1.7,68,33.6c9.7,15.4,10.8,30.6,10.8,37.2
			C664.4,130.6,662.9,149.8,649,166.5z M648.3,107.9c-1.7-7.4-7.4-25.1-26.4-35.3c-6.5-3.4-20.9-9.5-40.5-8.7
			c-5.5,0.2-23.6,1.5-38.2,12.3C535.4,81.8,520,97,520,123.8c0,3.6,0.4,13.1,4.4,23c13.5,34,51.5,35.9,61,35.9
			c6.6,0,25.8-0.6,42.4-12.9c20.9-15.8,22-39.1,22-47.5C649.8,119.2,650,114.7,648.3,107.9z"/>
		<g>
			<polygon class="st0" points="140.1,56.1 125.7,56.1 59.6,190.2 73.1,190.2 90.2,155.4 95.3,144.8 132.9,68.1 171.3,144.8 
				136,144.8 136,155.4 176.6,155.4 193.9,190.2 207.8,190.2 			"/>
		</g>
		<g>
			<g>
				<path class="st0" d="M224.7,190.2V56.1H238V179h97.6v11.2H224.7z"/>
			</g>
		</g>
		<g>
			<g>
				<path class="st0" d="M472.4,190.2v-27.4c-4,7-8,11.2-10.4,13.5c-7,6.5-24.3,17.7-50.2,17.7c-4.6,0-12.3-0.2-23-3
					c-8.9-2.3-30.6-9.1-43.7-32.5c-3.2-5.7-8.9-17.7-8.9-35c0-8.2,1.1-28.5,16.3-46.2c8.5-10.1,27.2-25.5,60-25.5
					c6.8,0,32.7,0.9,52.1,16.5c9.1,7.4,13.9,15.4,16.1,19l-12.5,7.2c-2.1-4-3.2-5.9-6.1-9.3c-12.3-15.4-31.9-21.3-50.7-21.3
					c-4.2,0-13.9,0.2-24.7,4.4c-23.4,8.9-36.7,30-36.7,54.7c0,6.3,0.8,23.6,12.9,38c7.2,8.5,22.6,20.9,50,20.9
					c3.4,0,11-0.2,19.8-2.7c16-4.7,30.8-16.1,36.7-32.1c2.5-6.8,2.8-13.3,3-15.8h-71.2v-11.4H484v70.1H472.4z"/>
			</g>
		</g>
		<g>
			<path class="st0" d="M779.3,130.4c11.8-0.6,23.9-1.1,34-8.5c12.7-9.5,13.7-23.6,13.7-28.9c0-3.6-0.4-12.9-5.9-21.3
				c-9.5-14.4-25.3-15.2-30.8-15.4c-3.2-0.2-6.5-0.2-9.7-0.2H688v30.4h12.9V67.1h80.2c7.6,0,15,0,21.7,4.4
				C812,77.7,813,88.9,813,92.2c0,6.1-2.1,11-3,12.9c-5.7,11.2-16.9,13.1-28.1,13.7c-3,0.2-5.9,0.2-8.9,0.2h-72V98.3H688v91.9h12.9
				v-59.8h61.4l53,59.8h18L779.3,130.4z"/>
		</g>
		<g>
			<g>
				<path class="st0" d="M1014.4,179H1135v11.2H996v-10.8l125.2-112.3h-114.7v-11h132v11.8L1014.4,179z"/>
			</g>
		</g>
		<g>
			<polygon class="st0" points="1190.6,179 1190.6,125.6 1217.6,125.6 1217.6,114.2 1190.6,114.2 1190.6,67.1 1305.9,67.1 
				1305.9,56.1 1177.5,56.1 1177.5,190.2 1311.4,190.2 1311.4,179 			"/>
		</g>
		<g>
			<rect x="1246.7" y="114.2" class="st0" width="50.5" height="11.4"/>
		</g>
		<g>
			<g>
				<g>
					<g>
						<path class="st0" d="M924.6,135.9v54.3h-12.9v-54.3l-67.3-79.8h17l56.8,69l54.9-69h16.2L924.6,135.9z"/>
					</g>
				</g>
			</g>
		</g>
	</g>
</g>
</svg>
