<?xml version="1.0" encoding="utf-8"?>
<!-- Generator: Adobe Illustrator 26.5.1, SVG Export Plug-In . SVG Version: 6.00 Build 0)  -->
<svg version="1.1" id="Layer_1" xmlns="http://www.w3.org/2000/svg" xmlns:xlink="http://www.w3.org/1999/xlink" x="0px" y="0px"
	 viewBox="0 0 1371 246" style="enable-background:new 0 0 1371 246;" xml:space="preserve">
<style type="text/css">
	.st0{fill:url(#SVGID_1_);}
	.st1{fill:url(#SVGID_00000080198840539636741790000000312765243837822861_);}
	.st2{fill:url(#SVGID_00000013889328023881988610000015193087374488826282_);}
	.st3{fill:url(#SVGID_00000059301029184309836760000005488879648181347224_);}
	.st4{fill:url(#SVGID_00000097464228387817256290000009984691943347093136_);}
	.st5{fill:url(#SVGID_00000129168916888006064230000016145296552687729819_);}
	.st6{fill:url(#SVGID_00000095307829437867701390000016330424240467550634_);}
	.st7{fill:url(#SVGID_00000111899051542226984510000002236517365846362801_);}
	.st8{fill:url(#SVGID_00000105420189033799908830000009098746464514735037_);}
	.st9{fill:url(#SVGID_00000018206306666801775490000008961175336324025533_);}
</style>
<g>
	<g>
		<g>
			<g>
				<linearGradient id="SVGID_1_" gradientUnits="userSpaceOnUse" x1="666.6722" y1="120.9982" x2="795.0944" y2="120.9982">
					<stop  offset="0" style="stop-color:#AD882E"/>
					<stop  offset="0.9469" style="stop-color:#FCD600"/>
				</linearGradient>
				<path class="st0" d="M782.6,156.2c-17.6,21.1-43.7,22.3-52.2,22.3c-8.8,0-41.1-1.5-56.7-29.4c-6.6-11.9-7.1-22.9-7.1-28
					c0-4,0.3-12.6,4.5-22.3c10.2-24.3,35-35.4,60.1-35.3c8.9,0,38.8,1.4,55.1,27.3c7.9,12.5,8.8,24.8,8.8,30.2
					C795.1,127.1,793.9,142.6,782.6,156.2z M782,108.6c-1.4-6-6-20.3-21.4-28.6c-5.2-2.8-16.9-7.7-32.8-7.1c-4.5,0.2-19.1,1.2-31,10
					c-6.3,4.6-18.8,16.9-18.8,38.6c0,2.9,0.3,10.6,3.5,18.6c10.9,27.6,41.7,29.1,49.4,29.1c5.4,0,20.9-0.5,34.3-10.5
					c16.9-12.8,17.9-31.7,17.9-38.5C783.2,117.8,783.4,114.1,782,108.6z"/>
			</g>
		</g>
		<g>
			
				<linearGradient id="SVGID_00000121280427924840345200000016218429645746877847_" gradientUnits="userSpaceOnUse" x1="304.8205" y1="120.9982" x2="424.9274" y2="120.9982">
				<stop  offset="0" style="stop-color:#AD882E"/>
				<stop  offset="0.9469" style="stop-color:#FCD600"/>
			</linearGradient>
			<polygon style="fill:url(#SVGID_00000121280427924840345200000016218429645746877847_);" points="370.1,66.6 358.4,66.6 
				304.8,175.4 315.8,175.4 329.6,147.2 333.8,138.6 364.3,76.3 395.4,138.6 366.8,138.6 366.8,147.2 399.7,147.2 413.7,175.4 
				424.9,175.4 			"/>
		</g>
		<g>
			<g>
				
					<linearGradient id="SVGID_00000149365216746916887000000002298267530573941685_" gradientUnits="userSpaceOnUse" x1="438.6285" y1="120.9982" x2="528.5555" y2="120.9982">
					<stop  offset="0" style="stop-color:#AD882E"/>
					<stop  offset="0.9469" style="stop-color:#FCD600"/>
				</linearGradient>
				<path style="fill:url(#SVGID_00000149365216746916887000000002298267530573941685_);" d="M438.6,175.4V66.6h10.8v99.6h79.1v9.1
					H438.6z"/>
			</g>
		</g>
		<g>
			<g>
				
					<linearGradient id="SVGID_00000173878227000209247480000001198092407990957754_" gradientUnits="userSpaceOnUse" x1="529.0139" y1="120.8443" x2="648.8132" y2="120.8443">
					<stop  offset="0" style="stop-color:#AD882E"/>
					<stop  offset="0.9469" style="stop-color:#FCD600"/>
				</linearGradient>
				<path style="fill:url(#SVGID_00000173878227000209247480000001198092407990957754_);" d="M639.4,175.4v-22.2
					c-3.2,5.7-6.5,9.1-8.5,10.9c-5.7,5.2-19.7,14.3-40.7,14.3c-3.7,0-10-0.2-18.6-2.5c-7.2-1.8-24.8-7.4-35.4-26.3
					c-2.6-4.6-7.2-14.3-7.2-28.3c0-6.6,0.9-23.1,13.2-37.4c6.9-8.2,22-20.6,48.7-20.6c5.5,0,26.5,0.8,42.2,13.4
					c7.4,6,11.2,12.5,13.1,15.4L636,97.9c-1.7-3.2-2.6-4.8-4.9-7.5c-10-12.5-25.9-17.2-41.1-17.2c-3.4,0-11.2,0.2-20,3.5
					C551,83.9,540.3,101,540.3,121c0,5.1,0.6,19.1,10.5,30.8c5.9,6.9,18.3,16.9,40.5,16.9c2.8,0,8.9-0.2,16-2.2
					c12.9-3.8,24.9-13.1,29.7-26c2-5.5,2.3-10.8,2.5-12.8h-57.7v-9.2h67.1v56.8H639.4z"/>
			</g>
		</g>
		<g>
			
				<linearGradient id="SVGID_00000111900120316871265840000001597597135541779610_" gradientUnits="userSpaceOnUse" x1="814.1847" y1="120.9982" x2="931.9815" y2="120.9982">
				<stop  offset="0" style="stop-color:#AD882E"/>
				<stop  offset="0.9469" style="stop-color:#FCD600"/>
			</linearGradient>
			<path style="fill:url(#SVGID_00000111900120316871265840000001597597135541779610_);" d="M888.3,126.8c9.5-0.5,19.4-0.9,27.6-6.9
				c10.3-7.7,11.1-19.1,11.1-23.4c0-2.9-0.3-10.5-4.8-17.2c-7.7-11.7-20.5-12.3-24.9-12.5c-2.6-0.2-5.2-0.2-7.9-0.2h-75.1v24.6h10.5
				V75.6h65c6.2,0,12.2,0,17.6,3.5c7.5,5.1,8.3,14.2,8.3,16.8c0,4.9-1.7,8.9-2.5,10.5c-4.6,9.1-13.7,10.6-22.8,11.1
				c-2.5,0.2-4.8,0.2-7.2,0.2h-58.4v-16.7h-10.5v74.5h10.5v-48.5h49.7l43,48.5H932L888.3,126.8z"/>
		</g>
		<g>
			<g>
				
					<linearGradient id="SVGID_00000049217886795803497420000011954336060340401301_" gradientUnits="userSpaceOnUse" x1="1063.8677" y1="120.9982" x2="1179.3552" y2="120.9982">
					<stop  offset="0" style="stop-color:#AD882E"/>
					<stop  offset="0.9469" style="stop-color:#FCD600"/>
				</linearGradient>
				<path style="fill:url(#SVGID_00000049217886795803497420000011954336060340401301_);" d="M1078.8,166.3h97.8v9.1h-112.7v-8.8
					l101.5-91h-93v-8.9h107v9.5L1078.8,166.3z"/>
			</g>
		</g>
		<g>
			
				<linearGradient id="SVGID_00000027564367296082017720000017091121240283846031_" gradientUnits="userSpaceOnUse" x1="1210.9884" y1="120.9982" x2="1319.5466" y2="120.9982">
				<stop  offset="0" style="stop-color:#AD882E"/>
				<stop  offset="0.9469" style="stop-color:#FCD600"/>
			</linearGradient>
			<polygon style="fill:url(#SVGID_00000027564367296082017720000017091121240283846031_);" points="1221.6,166.3 1221.6,123 
				1243.5,123 1243.5,113.8 1221.6,113.8 1221.6,75.6 1315.1,75.6 1315.1,66.6 1211,66.6 1211,175.4 1319.5,175.4 1319.5,166.3 			
				"/>
		</g>
		<g>
			
				<linearGradient id="SVGID_00000003103544887853926610000017327756358051235234_" gradientUnits="userSpaceOnUse" x1="1267.0814" y1="118.3806" x2="1307.998" y2="118.3806">
				<stop  offset="0" style="stop-color:#AD882E"/>
				<stop  offset="0.9469" style="stop-color:#FCD600"/>
			</linearGradient>
			
				<rect x="1267.1" y="113.8" style="fill:url(#SVGID_00000003103544887853926610000017327756358051235234_);" width="40.9" height="9.2"/>
		</g>
		
			<linearGradient id="SVGID_00000152987068048619890440000010168055571216625837_" gradientUnits="userSpaceOnUse" x1="51.4534" y1="123" x2="301.0451" y2="123">
			<stop  offset="0" style="stop-color:#AD882E"/>
			<stop  offset="0.9469" style="stop-color:#FCD600"/>
		</linearGradient>
		<path style="fill:url(#SVGID_00000152987068048619890440000010168055571216625837_);" d="M301,90.1l-1.9-4.2l-55.7,24.9
			c-0.9-5.4-2.3-10.6-4.2-15.6L264.6,84l-1.9-4.2l-25.3,11.3c-12.1-26.1-38.5-44.2-69.1-44.2c-42,0-76.1,34.1-76.1,76.1
			c0,3.3,0.2,6.6,0.6,9.8l-41.5,18l1.8,4.2l40.4-17.5c6.8,35,37.7,61.6,74.7,61.6c42,0,76.1-34.1,76.1-76.1c0-2.5-0.1-4.9-0.4-7.3
			L301,90.1z M239.9,123c0,39.4-32.1,71.5-71.5,71.5c-35.1,0-64.4-25.4-70.4-58.8l104.8-45.5l-1.8-4.2l-103.7,45
			c-0.3-2.6-0.4-5.3-0.4-7.9c0-39.4,32.1-71.5,71.5-71.5c28.7,0,53.5,17,64.9,41.5l-82.7,37l1.9,4.2l82.6-37
			c1.9,5,3.3,10.2,4.1,15.6l-99.8,44.7l1.9,4.2l98.4-44.1C239.8,119.4,239.9,121.2,239.9,123z"/>
		<g>
			<g>
				<g>
					<g>
						
							<linearGradient id="SVGID_00000021819781372759825490000018016731856137787568_" gradientUnits="userSpaceOnUse" x1="941.0078" y1="120.9982" x2="1058.4067" y2="120.9982">
							<stop  offset="0" style="stop-color:#AD882E"/>
							<stop  offset="0.9469" style="stop-color:#FCD600"/>
						</linearGradient>
						<path style="fill:url(#SVGID_00000021819781372759825490000018016731856137787568_);" d="M1006,131.3v44h-10.5v-44L941,66.6
							h13.8l46,55.9l44.5-55.9h13.1L1006,131.3z"/>
					</g>
				</g>
			</g>
		</g>
	</g>
</g>
</svg>
