<?xml version="1.0" encoding="utf-8"?>
<!-- Generator: Adobe Illustrator 26.5.1, SVG Export Plug-In . SVG Version: 6.00 Build 0) -->
<svg version="1.1" id="Layer_1" xmlns="http://www.w3.org/2000/svg" xmlns:xlink="http://www.w3.org/1999/xlink" x="0px" y="0px"
	 viewBox="0 0 1200 1200" style="enable-background:new 0 0 1200 1200;" xml:space="preserve">
<style type="text/css">
	.st0{fill:#FFFFFF;}
</style>
<path class="st0" d="M1027.6,490.8l-6.3-14l-184.9,82.9c-2.9-17.9-7.7-35.3-14.1-51.7l84.2-37.7l-6.3-14L816.3,494
	c-40.2-86.6-127.9-146.8-229.4-146.8C447.4,347.2,334,460.6,334,600c0,11.1,0.7,22,2.1,32.7l-137.7,59.8l6.1,14l134.2-58.2
	c22.6,116.4,125.3,204.5,248.1,204.5c139.4,0,252.8-113.4,252.8-252.8c0-8.2-0.4-16.4-1.2-24.4L1027.6,490.8z M824.3,600
	c0,131-106.5,237.5-237.5,237.5C470.2,837.5,372.9,753,353,642l348.3-151.2l-6.1-14L350.8,626.4c-1-8.7-1.5-17.4-1.5-26.4
	c0-131,106.5-237.5,237.5-237.5c95.3,0,177.7,56.5,215.5,137.7L527.7,623.3l6.3,14l274.3-122.9c6.4,16.5,11,33.9,13.6,52
	L490.4,714.8l6.3,14l327-146.5C824.1,588.1,824.3,594,824.3,600z"/>
</svg>
